<?xml version="1.0" encoding="UTF-8" standalone="no"?>
<svg
   width="1024"
   height="1024"
   viewBox="0 0 1024 1024"
   version="1.1"
   id="svg19"
   sodipodi:docname="newsticker.svg"
   inkscape:version="1.4.2 (ebf0e940d0, 2025-05-08)"
   xmlns:inkscape="http://www.inkscape.org/namespaces/inkscape"
   xmlns:sodipodi="http://sodipodi.sourceforge.net/DTD/sodipodi-0.dtd"
   xmlns:xlink="http://www.w3.org/1999/xlink"
   xmlns="http://www.w3.org/2000/svg"
   xmlns:svg="http://www.w3.org/2000/svg">
  <sodipodi:namedview
     id="namedview19"
     pagecolor="#ffffff"
     bordercolor="#000000"
     borderopacity="0.25"
     inkscape:showpageshadow="2"
     inkscape:pageopacity="0.0"
     inkscape:pagecheckerboard="0"
     inkscape:deskcolor="#d1d1d1"
     inkscape:zoom="0.57110301"
     inkscape:cx="428.99441"
     inkscape:cy="539.30726"
     inkscape:window-width="1253"
     inkscape:window-height="1027"
     inkscape:window-x="0"
     inkscape:window-y="0"
     inkscape:window-maximized="0"
     inkscape:current-layer="svg19" />
  <rect
     style="display:none;fill:#2a2d30;fill-opacity:1;stroke:none;stroke-width:70.1129"
     id="rect8"
     width="1019.0816"
     height="1024.3394"
     x="3.3407822"
     y="0.90662193"
     ry="143.8718" />
  <path
     fill="#50ACE1"
     d="M506.587 366.196L581.327 343.641C593.132 340.057 604.924 336.32 616.835 333.139C628.008 330.154 629.844 345.831 632.129 353.72C634.582 362.314 637.088 370.893 639.647 379.456L662.418 455.449C666.24 468.172 669.944 481.434 674.099 493.99C678.235 508.483 682.539 522.927 687.009 537.321C688.967 543.771 693.753 558.183 694.146 564.221C694.427 568.546 693.411 572.856 691.227 576.6C685.476 586.431 676.817 587.472 666.873 590.594C660.399 592.626 653.862 594.519 647.364 596.48L571.366 619.436L485.044 645.386L458.191 653.311C454.654 654.364 448.533 656.462 445.095 657.198C442.38 658.291 438.792 658.584 435.963 658.077C421.63 655.506 419.033 637.078 415.796 626.384L404.46 589.402L375.499 493.699C370.751 477.952 365.896 462.263 361.265 446.45C357.503 433.603 364.021 432.84 374.584 429.759C379.197 428.413 383.995 427.158 388.64 425.878C387.668 422.711 386.635 419.497 385.699 416.322C383.392 408.493 382.458 403.524 391.512 400.685C429.691 388.714 468.399 378.094 506.587 366.196Z"
     id="path6" />
  <path
     fill="#93BDDC"
     d="M674.099 493.99C678.235 508.483 682.539 522.927 687.009 537.321C688.967 543.771 693.753 558.183 694.146 564.221C694.427 568.546 693.411 572.856 691.227 576.6C685.476 586.431 676.817 587.472 666.873 590.594C660.399 592.626 653.862 594.519 647.364 596.48L571.366 619.436L485.044 645.386L458.191 653.311C454.654 654.364 448.533 656.462 445.095 657.198L445.222 656.483C456.216 645.816 452.078 637.326 448.351 624.309C444.236 609.938 439.489 595.717 435.336 581.354C433.893 576.365 432.543 571.152 430.788 566.288C439.498 564.286 452.508 560.021 461.436 557.386L520.459 539.845C531.484 536.568 543.8 532.656 554.869 529.881L554.937 529.657C594.463 517.912 634.551 505.296 674.099 493.99Z"
     id="path7" />
  <path
     fill="#50ACE1"
     d="M674.099 493.99C678.235 508.483 682.539 522.927 687.009 537.321C688.967 543.771 693.753 558.183 694.146 564.221C694.427 568.546 693.411 572.856 691.227 576.6C685.476 586.431 676.817 587.472 666.873 590.594C660.399 592.626 653.862 594.519 647.364 596.48L571.366 619.436C571.875 615.103 574.877 610.566 575.272 605.38C576.264 592.34 568.948 580.509 567.404 568.104C586.357 562.635 605.279 557.06 624.168 551.378C633.529 548.592 643.393 545.794 652.643 542.656C654.006 542.194 655.826 541.065 655.864 539.719C655.966 536.146 651.727 522.732 649.918 520.307C646.029 518.678 617.012 528.523 610.702 530.459L560.897 545.373C559.271 543.989 556.005 532.918 554.869 529.881L554.937 529.657C594.463 517.912 634.551 505.296 674.099 493.99Z"
     id="path8" />
  <path
     fill="#C2D9E8"
     d="M560.897 545.373L610.702 530.459C617.012 528.523 646.029 518.678 649.918 520.307C651.727 522.732 655.966 536.146 655.864 539.719C655.826 541.065 654.006 542.194 652.643 542.656C643.393 545.794 633.529 548.592 624.168 551.378C605.279 557.06 586.357 562.635 567.404 568.104L567.067 568.056C563.487 569.411 547.133 574.505 544.287 575.089C535.684 576.854 476.295 597.04 471.771 595.019C469.439 592.331 468.643 588.188 467.825 584.768C466.9 580.897 464.861 577.943 466.691 574.157C470.307 571.219 549.045 549.124 559.895 545.601L560.897 545.373Z"
     id="path9" />
  <path
     fill="#397EB7"
     d="M506.587 366.196L581.327 343.641C593.132 340.057 604.924 336.32 616.835 333.139C628.008 330.154 629.844 345.831 632.129 353.72C634.582 362.314 637.088 370.893 639.647 379.456L662.418 455.449C666.24 468.172 669.944 481.434 674.099 493.99C634.551 505.296 594.463 517.912 554.937 529.657C553.759 524.152 550.342 513.405 548.497 507.875L548.981 507.692C548.798 506.915 548.916 507.279 548.644 506.602C545.845 499.615 543.675 492.199 541.428 485.007L541.872 484.726C540.814 483.486 525.805 434.106 524.657 428.905C531.167 427.296 611.784 402.804 613.402 401.343C615.387 396.835 612.325 390.952 611.143 386.514C610.194 382.955 609.458 378.444 604.476 379.726C595.915 381.928 587.413 384.71 578.924 387.258L520.444 404.893C516.017 400.948 508.768 373.363 506.587 366.196Z"
     id="path10" />
  <path
     fill="#93BDDC"
     d="M541.872 484.726C570.37 477.026 598.479 467.51 626.83 459.337C628.43 458.875 629.757 458.77 631.258 459.553C634.134 462.977 638.477 476.139 636.532 480.569C633.675 482.651 608.159 489.887 603.326 491.34L548.981 507.692C548.798 506.915 548.916 507.279 548.644 506.602C545.845 499.615 543.675 492.199 541.428 485.007L541.872 484.726Z"
     id="path11" />
  <path
     fill="#397EB7"
     d="M445.095 657.198C442.38 658.291 438.792 658.584 435.963 658.077C421.63 655.506 419.033 637.078 415.796 626.384L404.46 589.402L375.499 493.699C370.751 477.952 365.896 462.263 361.265 446.45C357.503 433.603 364.021 432.84 374.584 429.759C379.197 428.413 383.995 427.158 388.64 425.878C393.177 438.541 398.156 457.952 402.194 471.266L430.788 566.288C432.543 571.152 433.893 576.365 435.336 581.354C439.489 595.717 444.236 609.938 448.351 624.309C452.078 637.326 456.216 645.816 445.222 656.483L445.095 657.198Z"
     id="path12" />
  <path
     fill="#FFFEFF"
     d="M520.444 404.893L578.924 387.258C587.413 384.71 595.915 381.928 604.476 379.726C609.458 378.444 610.194 382.955 611.143 386.514C612.325 390.952 615.387 396.835 613.402 401.343C611.784 402.804 531.167 427.296 524.657 428.905C513.052 432.43 436.073 456.93 431.436 456.106C430.416 455.925 429.442 454.701 428.967 453.83C427.363 450.893 423.411 438.006 424.378 434.806C428.935 431.18 450.547 425.749 457.597 423.648L520.444 404.893Z"
     id="path13" />
  <path
     fill="#c2d9e8"
     d="m 548.497,507.875 c -12.897,3.493 -87.773,27.636 -93.378,26.313 -3.038,-2 -7.161,-17.265 -5.858,-20.978 3.443,-2.306 34.795,-11.148 41.058,-12.949 16.413,-4.721 34.679,-10.86 51.109,-15.254 2.247,7.192 4.417,14.608 7.216,21.595 0.272,0.677 0.154,0.313 0.337,1.09 z"
     id="path14"
     style="display:inline" />
  <defs
     id="defs15">
    <linearGradient
       id="gradient_0"
       gradientUnits="userSpaceOnUse"
       x1="681.56409"
       y1="589.51312"
       x2="451.54599"
       y2="952.21417">
      <stop
         offset="0"
         stop-color="#65BEAD"
         id="stop14" />
      <stop
         offset="1"
         stop-color="#77E4C8"
         id="stop15" />
    </linearGradient>
    <linearGradient
       inkscape:collect="always"
       xlink:href="#linearGradient7"
       id="linearGradient8"
       x1="87.86483"
       y1="199.10158"
       x2="112.85426"
       y2="41.324516"
       gradientUnits="userSpaceOnUse"
       gradientTransform="matrix(3.7795276,0,0,3.7795276,50.124996,-26.265435)" />
    <linearGradient
       id="linearGradient7"
       inkscape:collect="always">
      <stop
         style="stop-color:#000000;stop-opacity:1;"
         offset="0"
         id="stop7" />
      <stop
         style="stop-color:#009fff;stop-opacity:0.85000002;"
         offset="1"
         id="stop8" />
    </linearGradient>
    <linearGradient
       id="gradient_0-7"
       gradientUnits="userSpaceOnUse"
       x1="681.56409"
       y1="589.51312"
       x2="451.54599"
       y2="952.21417"
       gradientTransform="translate(3.6232285,6.6180194)">
      <stop
         offset="0"
         stop-color="#65BEAD"
         id="stop14-0" />
      <stop
         offset="1"
         stop-color="#77E4C8"
         id="stop15-9" />
    </linearGradient>
    <linearGradient
       id="gradient_0-6"
       gradientUnits="userSpaceOnUse"
       x1="358.18964"
       y1="822.815"
       x2="774.92072"
       y2="718.91229"
       gradientTransform="translate(1.0222896,-0.7012294)">
      <stop
         offset="0"
         stop-color="#65BEAD"
         id="stop14-06"
         style="stop-color:#29c8ac;stop-opacity:1;" />
      <stop
         offset="1"
         stop-color="#77E4C8"
         id="stop15-2"
         style="stop-color:#5e9e93;stop-opacity:1;" />
    </linearGradient>
  </defs>
  <path
     id="path15-6"
     style="display:inline;fill:url(#gradient_0-6);stroke-width:0.999999"
     d="m 802.43443,289.23944 c 3.273,8.45201 11.2311,21.67494 15.5801,30.87695 14.703,31.10699 24.313,64.88588 26.623,99.42188 2.478,37.056 -1.5295,83.2625 -21.3945,115.60547 -5.857,9.53602 -13.0701,15.10579 -20.0372,23.13279 l -0.4257,0.49807 c -2.895,30.40191 -19.6372,66.06675 -34.6172,92.05274 -42.271,64.47802 -100.25446,110.87244 -176.8965,126.89843 -40.608,8.278 -82.61426,6.62555 -122.44726,-4.81444 3.401,-9.046 7.10821,-18.73837 10.94922,-27.56836 4.70799,-10.82 5.20154,-23.91814 -8.06446,-28.32813 -7.641,-2.54101 -23.73042,3.92016 -31.48242,6.32617 l -42.22461,13.16406 -48.0293,14.87501 c -9.454,2.91602 -24.35498,4.73692 -27.83398,14.91991 -3.374,9.87598 2.72294,17.98077 6.96094,26.63475 l 15.125,30.89065 c 10.19899,21.01799 20.60484,41.93506 31.21484,62.74805 3.737,7.33901 6.962,15.1756 11.125,22.26562 2.263,3.855 5.46708,6.14691 9.83008,7.16991 4.562,1.069 9.33377,0.58643 13.25976,-2.10157 8.36701,-5.727 14.88013,-31.13646 19.07813,-41.06445 21.54,6.44099 39.84031,10.852 62.32031,13.83398 58.726,7.479 118.3901,0.72094 173.95509,-19.70703 17.81503,-6.86101 35.1377,-14.93782 51.84566,-24.17185 42.775,-23.12999 85.6455,-60.87122 115.4004,-99.40823 1.691,-2.19096 9.6526,-12.96741 10.6836,-15.02147 2.5751,-1.571 19.097,-29.36417 21.375,-33.45116 35.989,-63.77703 50.812,-137.32747 42.334,-210.06447 -8.788,-65.84901 -38.141,-127.24273 -83.875,-175.42773 -4.58,-4.796 -15.552,-16.50157 -20.332,-20.18555 z" />
  <defs
     id="defs17">
    <linearGradient
       id="gradient_1"
       gradientUnits="userSpaceOnUse"
       x1="128.87849"
       y1="697.31116"
       x2="303.56363"
       y2="319.5751">
      <stop
         offset="0"
         stop-color="#345557"
         id="stop16" />
      <stop
         offset="1"
         stop-color="#45A7D3"
         id="stop17" />
    </linearGradient>
  </defs>
  <path
     id="path16-5"
     style="display:inline;opacity:1;fill:url(#linearGradient8);fill-opacity:1;stroke-width:0.999999"
     d="m 652.04297,108.15058 c -0.84495,0.005 -1.66889,0.0685 -2.45704,0.19139 -11.42101,1.779 -14.71033,13.3465 -18.15231,22.5625 -2.47903,6.638 -4.85284,13.26852 -7.63283,19.72852 -39.312,-11.976 -85.73965,-18.48375 -126.80663,-16.84375 -77.04402,2.597 -151.48735,28.51421 -213.48635,74.32422 -9.72299,7.227 -25.71676,19.67444 -34.00976,28.64843 -70.33,63.09201 -116.2768,157.62023 -121.3418,252.11722 -5.21,85.28201 23.81282,169.11968 80.63282,232.92968 5.89,6.52898 19.91587,20.65201 26.79687,26.20701 -4.761,-8.09299 -8.69759,-14.52302 -12.80859,-23.08203 -28.478,-59.29598 -40.07925,-129.15923 -24.03126,-193.61522 4.11001,-16.50398 12.13438,-35.77617 22.60938,-49.28318 3.697,-4.76799 9.27417,-10.40342 13.45117,-15.0254 14,-76.586 51.57616,-131.22468 113.16016,-177.72268 9.467,-5.367 17.13835,-11.27822 27.77735,-16.94922 63.66501,-34.523 138.42607,-42.37313 207.87304,-21.82813 -1.95099,5.46001 -4.10869,10.84268 -6.4707,16.13868 -5.32498,11.962 -16.83137,29.26815 -1.15038,38.91016 7.70899,4.74099 14.87724,1.46196 22.90624,-0.45704 l 25.92775,-6.24023 c 30.26098,-7.471 60.47086,-15.14353 90.62888,-23.01953 6.10099,-1.654 11.1614,-3.29687 14.14843,-9.42188 5.49699,-11.275 -3.60415,-24.24338 -8.61913,-34.73438 l -18.47656,-39.02734 -23.16405,-49.78711 c -4.00902,-8.84 -7.68797,-17.84022 -11.91798,-26.57422 -2.54801,-5.3585 -9.47199,-8.18287 -15.38672,-8.14649 z" />
  <defs
     id="defs19">
    <linearGradient
       id="gradient_2"
       gradientUnits="userSpaceOnUse"
       x1="921.31262"
       y1="411.78821"
       x2="721.42828"
       y2="608.37598">
      <stop
         offset="0"
         stop-color="#356366"
         id="stop18" />
      <stop
         offset="1"
         stop-color="#62BAAE"
         id="stop19" />
    </linearGradient>
  </defs>
</svg>
